<svg xmlns="http://www.w3.org/2000/svg" version="1.1" xmlns:xlink="http://www.w3.org/1999/xlink" xmlns:svgjs="http://svgjs.dev/svgjs" width="1000" height="2008" viewBox="0 0 1000 2008"><g transform="matrix(1,0,0,1,-1.6256970303796265,0.8129554655870379)"><svg viewBox="0 0 123 247" data-background-color="#ca3433" preserveAspectRatio="xMidYMid meet" height="2008" width="1000" xmlns="http://www.w3.org/2000/svg" xmlns:xlink="http://www.w3.org/1999/xlink"><g id="tight-bounds" transform="matrix(1,0,0,1,0.19996073473669185,-0.09999999999999432)"><svg viewBox="0 0 122.6000785305266 247.2" height="247.2" width="122.6000785305266"><g><svg viewBox="0 0 183.89545899280574 370.7906064" height="247.2" width="122.6000785305266"><g><svg viewBox="0 0 183.89545899280574 370.7906064" height="370.7906064" width="183.89545899280574"><g><svg viewBox="0 0 183.89545899280574 370.7906064" height="370.7906064" width="183.89545899280574"><g><rect width="183.89545899280574" height="247.2" fill="none" stroke-width="9.018103199999999" stroke="#ffffff" data-fill-palette-color="none" data-stroke-palette-color="tertiary"></rect><rect width="183.89545899280574" height="123.59060639999998" y="247.2" fill="#ffffff" data-fill-palette-color="tertiary"></rect></g><g><svg viewBox="0 0 183.89545899280574 247.2" height="247.2" width="183.89545899280574"><g transform="matrix(1,0,0,1,23.607599999999998,23.607600000000012)"><svg width="136.68025899280576" viewBox="1.850000023841858 -34.75 23.75 34.75" height="199.98479999999998" data-palette-color="#ffffff"><path d="M25.6 0L16.75 0 16.75-14.6 10.7-14.6 10.7 0 1.85 0 1.85-34.75 10.7-34.75 10.7-21.45 16.75-21.45 16.75-34.75 25.6-34.75 25.6 0Z" opacity="1" transform="matrix(1,0,0,1,0,0)" fill="#ffffff" class="undefined-text-0" data-fill-palette-color="primary" id="text-0"></path></svg></g></svg></g></svg></g></svg></g></svg></g><defs></defs></svg><rect width="122.6000785305266" height="247.2" fill="none" stroke="none" visibility="hidden"></rect></g></svg></g></svg>